# xmcd CD database file
#
# Track frame offsets:
#	150
#	12992
#	28417
#	47935
#	67105
#	81720
#	96202
#	110537
#	119047
#	137527
#	146272
#	159752
#	174992
#	188587
#	203772
#
# Disc length: 2879 seconds
#
# Revision: 0
# Processed by: cddbd v1.5.2PL0 Copyright (c) Steve Scherf et al.
# Submitted via: CDex 1.70beta2
#
DISCID=d40b3d0f
DTITLE=Rolland Viti - Sentimental Journey Orchestra Presents Trombonius
DYEAR=1996
DGENRE=Jazz
TTITLE0=Sentimental Over You
TTITLE1=Speak Low
TTITLE2=Ballad for Trombone
TTITLE3=September Song
TTITLE4=Jusr Friends
TTITLE5=Stardust
TTITLE6=Flamingo
TTITLE7=Syboney
TTITLE8=Time for Love
TTITLE9=Autumn Leaves
TTITLE10=The More I See You
TTITLE11=Ole Devil Moon
TTITLE12=Invitation
TTITLE13=Sweet Gorgia Schwartz
TTITLE14=I'm Glad There Was You
EXTD=YEAR: 1996
EXTT0=
EXTT1=
EXTT2=
EXTT3=
EXTT4=
EXTT5=
EXTT6=
EXTT7=
EXTT8=
EXTT9=
EXTT10=
EXTT11=
EXTT12=
EXTT13=
EXTT14=
PLAYORDER=
